<?xml version="1.0" standalone="no"?>
<!DOCTYPE svg PUBLIC "-//W3C//DTD SVG 20010904//EN"
 "http://www.w3.org/TR/2001/REC-SVG-20010904/DTD/svg10.dtd">
<svg version="1.0" xmlns="http://www.w3.org/2000/svg"
 width="1364.000000pt" height="1364.000000pt" viewBox="0 0 1364.000000 1364.000000"
 preserveAspectRatio="xMidYMid meet">
<metadata>
Created by potrace 1.16, written by Peter Selinger 2001-2019
</metadata>
<g transform="translate(0.000000,1364.000000) scale(0.100000,-0.100000)"
fill="#000000" stroke="none">
<path d="M6094 11270 c-84 -9 -92 -15 -702 -550 -630 -553 -1081 -943 -1165
-1007 -87 -67 -97 -71 -392 -167 -466 -151 -930 -396 -1364 -721 -236 -177
-372 -295 -582 -505 -417 -416 -769 -914 -851 -1205 -31 -109 -31 -268 -1
-375 68 -238 253 -509 683 -1000 732 -837 1468 -1361 2330 -1660 l164 -58 58
-113 c32 -63 81 -145 110 -184 337 -445 1107 -835 1858 -941 160 -22 427 -29
561 -14 127 14 334 62 392 92 106 54 66 136 -374 770 -197 283 -289 424 -289
443 0 7 30 26 68 43 37 17 156 71 266 120 l198 90 47 -20 c171 -75 371 -131
591 -165 155 -24 521 -24 700 1 537 73 973 249 1306 528 88 74 169 160 192
205 17 30 15 69 -4 98 -8 13 -81 83 -162 156 -142 129 -187 170 -542 499 -175
162 -263 257 -256 276 3 7 85 120 183 251 181 242 206 277 361 507 101 150
114 162 144 126 11 -14 250 -294 531 -623 282 -330 582 -681 667 -781 85 -100
239 -281 341 -402 257 -301 316 -368 373 -414 78 -65 112 -65 150 0 18 30 18
39 8 99 -11 68 -131 553 -336 1363 -151 601 -186 763 -186 874 0 83 7 111 146
583 80 273 204 690 275 927 149 499 170 581 171 673 0 78 -11 105 -52 126 -41
21 -55 19 -108 -16 -26 -17 -490 -476 -1032 -1020 -542 -544 -989 -989 -995
-989 -5 0 -30 39 -54 86 -50 97 -191 310 -369 558 -67 93 -122 176 -122 185 0
22 31 51 220 203 167 135 286 253 296 294 14 53 -3 121 -53 221 -195 391 -543
823 -1006 1250 -408 377 -834 697 -1237 929 -293 168 -616 303 -812 338 -90
16 -262 24 -344 16z m262 -230 c162 -29 395 -106 469 -154 20 -13 23 -20 16
-35 -6 -10 -108 -112 -228 -227 -295 -282 -778 -741 -833 -791 l-45 -41 -395
-5 c-347 -4 -451 -10 -637 -32 -31 -3 -43 -1 -43 9 0 19 112 123 395 366 138
118 373 323 524 455 505 442 548 475 632 475 19 0 85 -9 145 -20z m813 -332
c226 -125 451 -286 451 -323 0 -22 -749 -700 -853 -772 l-38 -26 -287 67
c-370 86 -385 90 -389 102 -8 24 1002 994 1034 994 3 0 40 -19 82 -42z m684
-477 c33 -13 163 -119 327 -267 165 -149 184 -169 177 -187 -5 -13 -221 -208
-560 -506 l-117 -103 -38 15 c-84 35 -610 298 -621 311 -10 12 4 30 76 101
209 207 704 645 728 645 2 0 15 -4 28 -9z m793 -713 c133 -138 334 -382 334
-405 0 -12 -78 -83 -285 -259 -186 -158 -247 -209 -262 -218 -11 -6 -99 58
-463 341 l-84 66 74 70 c92 87 434 386 513 450 33 26 65 47 71 47 7 0 53 -42
102 -92z m-3073 44 c53 -5 100 -12 104 -15 9 -10 -36 -73 -147 -207 -125 -150
-384 -442 -438 -494 l-41 -39 -33 54 c-19 30 -65 110 -104 178 -38 68 -122
194 -186 280 -65 86 -118 164 -118 173 0 19 12 24 100 37 66 10 374 30 530 34
47 1 119 3 160 5 41 1 119 -2 173 -6z m798 -117 c425 -98 1216 -450 1449 -645
42 -35 48 -45 38 -57 -13 -16 -114 -92 -223 -168 -38 -27 -115 -83 -170 -124
-152 -114 -344 -241 -366 -241 -24 0 -68 56 -225 288 -70 103 -216 313 -324
467 -226 321 -320 465 -320 488 0 22 12 22 141 -8z m-414 -25 c12 -10 83 -108
159 -217 75 -109 205 -295 288 -413 241 -344 378 -552 368 -562 -6 -6 -35 -3
-73 7 -74 19 -507 145 -619 180 -41 13 -190 56 -330 95 -407 114 -480 140
-480 173 0 18 113 155 367 446 218 249 276 311 291 311 5 0 18 -9 29 -20z
m-1629 -7 c61 -28 191 -168 279 -301 174 -261 321 -604 417 -972 77 -294 105
-565 113 -1095 6 -410 -3 -583 -43 -828 -70 -432 -159 -770 -297 -1122 -100
-258 -359 -731 -444 -812 -44 -42 -66 -42 -217 3 -537 158 -1169 547 -1720
1059 -248 230 -597 611 -830 903 -223 282 -317 440 -337 567 -23 155 30 381
125 530 43 66 243 325 380 490 192 232 511 542 771 749 124 99 449 319 582
394 305 172 640 315 943 401 203 59 221 61 278 34z m4837 -550 c42 -57 135
-241 135 -266 0 -35 -140 -166 -351 -330 l-86 -67 -122 125 c-71 74 -121 133
-121 144 0 28 22 50 205 204 88 74 185 158 215 186 30 27 63 50 72 51 10 0 34
-21 53 -47z m2265 -193 c0 -11 -45 -169 -100 -352 -56 -183 -125 -427 -156
-542 -55 -209 -167 -572 -207 -676 l-22 -55 -325 1 c-298 1 -663 17 -717 30
-33 9 -29 40 13 103 71 105 1484 1528 1505 1515 5 -3 9 -14 9 -24z m-3277
-110 c218 -158 642 -619 919 -1000 140 -194 277 -425 261 -441 -15 -15 -85 12
-318 123 -737 352 -1283 611 -1337 634 -81 34 -270 129 -320 160 -34 22 -38
27 -26 41 36 44 667 492 719 511 31 12 56 5 102 -28z m-2708 -190 c115 -33
252 -73 304 -89 53 -16 213 -64 356 -106 574 -169 652 -195 640 -215 -19 -30
-981 -730 -1277 -928 l-76 -51 -6 72 c-3 39 -12 177 -21 305 -24 358 -49 528
-126 853 -44 189 -47 219 -21 219 10 0 112 -27 227 -60z m1900 -582 c78 -35
639 -302 1095 -520 80 -39 190 -90 245 -115 193 -87 440 -212 464 -234 23 -22
23 -23 5 -36 -29 -22 -240 -127 -587 -292 -172 -82 -460 -221 -642 -309 -181
-87 -405 -196 -497 -241 -189 -91 -281 -131 -302 -131 -7 0 -16 12 -19 28 -5
25 5 325 18 537 11 180 34 705 40 905 6 207 22 437 32 453 8 13 47 1 148 -45z
m-401 -204 c0 -194 -46 -1333 -62 -1566 -4 -65 -11 -120 -14 -123 -14 -14
-183 97 -578 380 -124 88 -316 225 -426 303 -111 78 -223 161 -250 185 -42 39
-47 47 -35 60 18 23 132 105 536 392 193 136 386 273 430 305 44 31 103 72
130 90 28 19 94 67 149 107 54 41 104 72 110 70 8 -3 11 -65 10 -203z m3864
-775 l114 -12 18 -42 c10 -23 37 -124 60 -224 23 -100 57 -239 76 -307 95
-347 260 -1041 250 -1051 -21 -22 -990 1114 -1305 1531 -46 60 -79 112 -74
117 21 21 630 13 861 -12z m-5197 -327 c118 -81 277 -193 354 -247 77 -54 248
-175 380 -268 280 -197 294 -209 275 -232 -21 -25 -63 -39 -292 -100 -272 -72
-730 -199 -831 -231 -132 -41 -319 -85 -346 -82 -16 2 -25 9 -25 18 1 8 25
103 52 210 87 335 147 658 172 930 12 131 16 150 34 150 7 0 109 -67 227 -148z
m3549 110 c0 -11 -288 -393 -400 -532 -198 -245 -450 -514 -694 -741 l-170
-157 -45 23 c-25 13 -125 79 -221 147 -96 68 -214 149 -263 182 -48 32 -109
77 -135 101 -40 36 -45 45 -34 58 17 20 263 141 1207 592 176 84 383 183 460
220 77 37 165 78 195 91 56 24 100 31 100 16z m-260 -998 c302 -276 710 -665
710 -676 0 -22 -46 -71 -123 -133 -105 -85 -172 -120 -201 -107 -58 26 -263
205 -598 520 l-207 195 44 56 c23 31 88 100 144 154 l100 99 29 -20 c15 -11
61 -51 102 -88z m-2170 -112 c0 -10 -42 -87 -93 -172 -153 -254 -633 -1017
-653 -1039 -7 -8 -102 89 -222 229 -64 74 -178 205 -253 290 -241 276 -254
296 -207 321 26 14 182 60 523 154 350 96 546 151 700 194 160 45 205 50 205
23z m429 -93 c182 -123 420 -293 470 -336 23 -19 41 -42 41 -52 0 -34 -374
-285 -647 -434 -266 -146 -637 -297 -728 -297 -23 0 -25 3 -19 23 12 38 175
304 521 850 118 185 217 337 221 337 4 0 67 -41 141 -91z m1223 -206 c119
-105 560 -518 606 -567 32 -33 52 -63 50 -74 -4 -22 -50 -44 -168 -81 -117
-37 -228 -61 -283 -61 -51 0 -83 20 -217 135 -52 45 -122 102 -156 128 -82 62
-254 226 -254 242 0 31 324 315 361 315 10 0 38 -17 61 -37z m-3169 -386 c161
-181 456 -532 498 -594 16 -23 29 -46 29 -52 0 -34 -223 -49 -610 -40 -272 7
-379 17 -478 48 -42 12 -58 22 -60 36 -1 11 34 81 78 155 90 150 208 378 270
520 22 52 47 105 56 118 l16 24 30 -28 c16 -16 93 -100 171 -187z m2578 -72
c37 -20 254 -200 337 -280 76 -74 79 -91 16 -101 -90 -13 -439 25 -634 70
-129 30 -160 41 -160 60 0 26 354 266 393 266 10 0 31 -7 48 -15z m-1506 -727
c27 -12 150 -186 397 -563 190 -288 248 -382 248 -398 0 -31 -54 -40 -256 -46
-227 -7 -273 -3 -312 26 -30 22 -107 140 -311 478 -161 266 -235 405 -224 415
4 5 76 22 158 39 83 18 173 38 200 46 63 17 69 18 100 3z m-1562 -83 c151 -23
347 -35 601 -35 l241 0 202 -338 c200 -333 263 -445 263 -469 0 -20 -54 -16
-166 12 -440 106 -943 388 -1235 692 -147 153 -132 174 94 138z"/>
<path d="M3422 8114 c-230 -33 -415 -166 -516 -369 -19 -38 -42 -98 -50 -131
-20 -78 -21 -241 -1 -314 55 -207 219 -377 432 -448 68 -22 96 -26 213 -26
151 -1 210 13 345 83 105 54 239 191 293 298 22 45 46 108 52 139 17 82 8 244
-18 324 -45 136 -149 269 -273 350 -68 44 -191 88 -265 95 -113 11 -133 11
-212 -1z m61 -348 c43 -17 93 -76 108 -125 30 -100 -46 -210 -156 -227 -161
-24 -292 163 -203 289 45 63 174 95 251 63z"/>
</g>
</svg>
